<?xml version="1.0" encoding="UTF-8" standalone="no"?>
<svg
   width="76"
   height="44"
   viewBox="0 0 76 44"
   version="1.1"
   id="svg3"
   xmlns="http://www.w3.org/2000/svg"
   xmlns:svg="http://www.w3.org/2000/svg">
  <defs
     id="defs3" />
  <g
     fill="none"
     fill-rule="evenodd"
     id="g3"
     transform="matrix(1.0014695,0,0,1,4.1694917,2.5721143)">
    <path
       id="rect3"
       style="fill:#1d689f"
       transform="matrix(0.99853266,0,0,1,-4.1633736,-2.5721143)"
       d="M 9.5239966,0 H 66.360756 c 5.324924,0 9.611776,4.2868518 9.611776,9.6117754 V 34.36539 c 0,5.324923 -4.286852,9.611775 -9.611776,9.611775 H 9.5239966 c -5.3249235,0 -9.61177538,-4.286852 -9.61177538,-9.611775 V 9.6117754 C -0.08777878,4.2868518 4.1990731,0 9.5239966,0 Z" />
    <path
       fill="#e25a1c"
       d="m 62.061,17.243 c -0.058,0.123 -0.085,0.186 -0.117,0.245 -0.85,1.594 -1.698,3.19 -2.555,4.78 -0.087,0.159 -0.076,0.254 0.042,0.39 1.352,1.558 2.697,3.122 4.044,4.685 0.047,0.054 0.09,0.113 0.108,0.21 -0.394,-0.101 -0.788,-0.201 -1.181,-0.304 -1.634,-0.427 -3.268,-0.853 -4.9,-1.285 -0.152,-0.04 -0.221,0.003 -0.297,0.128 -0.927,1.528 -1.86,3.053 -2.792,4.578 -0.048,0.08 -0.1,0.157 -0.202,0.223 -0.075,-0.407 -0.152,-0.814 -0.225,-1.221 l -0.777,-4.314 c -0.028,-0.156 -0.067,-0.31 -0.08,-0.467 -0.014,-0.148 -0.09,-0.203 -0.227,-0.245 -1.925,-0.596 -3.848,-1.198 -5.772,-1.8 -0.084,-0.026 -0.167,-0.06 -0.257,-0.141 l 4.744,-1.86 c -0.058,-0.045 -0.096,-0.08 -0.138,-0.108 -0.984,-0.628 -1.97,-1.253 -2.95,-1.884 -0.118,-0.075 -0.211,-0.086 -0.343,-0.027 -1.175,0.521 -2.355,1.033 -3.531,1.552 -0.529,0.233 -1.004,0.542 -1.374,0.988 -0.837,1.01 -0.672,2.158 0.443,2.86 0.365,0.23 0.78,0.401 1.192,0.534 1.886,0.606 3.779,1.19 5.67,1.777 0.159,0.049 0.233,0.119 0.262,0.288 0.252,1.44 0.514,2.877 0.776,4.315 0.141,0.768 0.216,1.557 0.595,2.26 0.146,0.272 0.32,0.537 0.528,0.764 0.75,0.822 1.799,0.854 2.593,0.07 0.268,-0.264 0.498,-0.576 0.698,-0.895 0.874,-1.407 1.735,-2.823 2.59,-4.24 0.102,-0.169 0.193,-0.202 0.38,-0.153 2.11,0.558 4.222,1.107 6.333,1.657 0.436,0.114 0.876,0.155 1.323,0.073 0.974,-0.18 1.4,-0.91 1.07,-1.838 -0.15,-0.422 -0.409,-0.78 -0.7,-1.116 -1.473,-1.71 -2.944,-3.42 -4.422,-5.125 -0.121,-0.14 -0.124,-0.24 -0.04,-0.396 0.882,-1.64 1.756,-3.283 2.634,-4.925 0.21,-0.393 0.37,-0.8 0.375,-1.252 0.01,-1.027 -0.75,-1.867 -1.785,-2.016 -0.58,-0.084 -1.118,0.038 -1.66,0.203 -1.323,0.404 -2.648,0.8 -3.974,1.193 -0.123,0.037 -0.17,0.084 -0.191,0.215 -0.153,0.92 -0.319,1.838 -0.48,2.757 -0.004,0.025 0.003,0.052 0.007,0.109 l 4.563,-1.242"
       transform="matrix(1,0,0,-1,0,35.974)"
       id="path1" />
    <path
       fill="#ffffff"
       d="m 59.483,3.841 c -1.193,0.002 -2.386,0.008 -3.58,0.003 -0.157,0 -0.246,0.045 -0.334,0.177 -1.412,2.122 -2.83,4.239 -4.248,6.357 -0.045,0.068 -0.093,0.133 -0.174,0.246 L 50.245,3.857 h -3.124 c 0.037,0.3 0.069,0.59 0.107,0.88 0.305,2.296 0.611,4.594 0.918,6.89 0.292,2.195 0.583,4.39 0.88,6.585 0.009,0.065 0.053,0.148 0.107,0.183 1.075,0.69 2.154,1.376 3.232,2.062 0.016,0.01 0.038,0.011 0.094,0.027 l -0.974,-7.324 0.038,-0.026 5.113,5.59 0.136,-0.772 c 0.121,-0.698 0.237,-1.396 0.367,-2.092 0.026,-0.14 -0.011,-0.228 -0.106,-0.325 -1.094,-1.13 -2.185,-2.263 -3.276,-3.396 L 53.61,11.98 c 0.035,-0.055 0.064,-0.108 0.1,-0.157 L 59.357,4.009 C 59.391,3.961 59.44,3.924 59.483,3.882 v -0.04 m -37.028,6.772 c -0.048,0.24 -0.082,0.593 -0.19,0.922 -0.523,1.592 -2.18,2.465 -3.894,2.071 -1.88,-0.431 -3.224,-1.89 -3.418,-3.782 -0.144,-1.4 0.62,-2.749 2.041,-3.255 1.145,-0.408 2.247,-0.237 3.27,0.368 1.358,0.803 2.093,1.995 2.19,3.676 z M 14.197,4.697 C 14.104,4.012 14.015,3.367 13.929,2.72 13.815,1.862 13.701,1.003 13.591,0.144 13.578,0.044 13.547,-0.001 13.438,0 12.58,0.003 11.722,0.003 10.864,0.004 c -0.02,0 -0.039,0.01 -0.085,0.023 0.051,0.406 0.102,0.812 0.156,1.218 0.19,1.425 0.378,2.849 0.57,4.273 0.22,1.628 0.394,3.264 0.675,4.882 0.499,2.864 2.962,5.333 5.854,5.948 1.676,0.356 3.28,0.191 4.743,-0.74 1.46,-0.927 2.297,-2.273 2.488,-3.967 C 25.535,9.247 24.641,7.259 22.917,5.615 21.785,4.535 20.43,3.849 18.867,3.617 17.257,3.378 15.743,3.643 14.385,4.579 14.335,4.613 14.282,4.643 14.197,4.697 M 12.798,18.308 9.977,16.237 C 9.827,16.47 9.692,16.703 9.535,16.92 9.131,17.477 8.629,17.893 7.898,17.944 7.291,17.986 6.772,17.788 6.358,17.347 5.988,16.952 5.94,16.39 6.286,15.944 6.666,15.454 7.082,14.988 7.507,14.533 8.212,13.78 8.949,13.055 9.649,12.297 10.286,11.608 10.793,10.835 10.95,9.893 11.137,8.773 10.91,7.706 10.373,6.722 9.379,4.9 7.813,3.842 5.747,3.512 4.834,3.366 3.924,3.395 3.033,3.654 1.851,3.997 1.03,4.76 0.5,5.84 0.313,6.22 0.17,6.624 0,7.033 L 3.06,8.648 C 3.095,8.564 3.12,8.494 3.153,8.428 3.327,8.085 3.47,7.721 3.685,7.405 4.324,6.468 5.355,6.183 6.403,6.645 c 0.268,0.12 0.527,0.288 0.748,0.48 0.675,0.591 0.801,1.413 0.302,2.156 -0.287,0.427 -0.646,0.81 -0.995,1.193 -0.835,0.914 -1.704,1.8 -2.52,2.73 -0.561,0.642 -0.943,1.39 -1.064,2.25 -0.132,0.938 0.058,1.823 0.553,2.613 1.23,1.963 3.02,2.985 5.385,2.9 1.348,-0.048 2.422,-0.67 3.256,-1.703 0.246,-0.306 0.478,-0.624 0.73,-0.956 M 35.648,7.767 C 35.492,6.584 35.344,5.46 35.19,4.337 35.182,4.28 35.137,4.203 35.088,4.18 32.759,3.117 29.693,3.265 27.781,5.407 c -1.028,1.15 -1.459,2.516 -1.394,4.036 0.149,3.517 3.105,6.587 6.641,7.016 2.066,0.251 3.878,-0.3 5.277,-1.882 0.953,-1.078 1.394,-2.366 1.329,-3.787 C 39.591,9.852 39.442,8.917 39.324,7.983 39.156,6.66 38.972,5.338 38.795,4.016 38.789,3.969 38.779,3.922 38.769,3.863 h -2.786 c 0.037,0.304 0.071,0.601 0.11,0.898 0.202,1.527 0.424,3.052 0.6,4.582 0.11,0.952 0.041,1.898 -0.4,2.78 -0.47,0.939 -1.259,1.435 -2.295,1.543 -2.145,0.224 -4.186,-1.246 -4.643,-3.328 -0.302,-1.374 0.174,-2.691 1.284,-3.42 1.081,-0.71 2.24,-0.712 3.418,-0.251 0.598,0.233 1.107,0.602 1.591,1.1 m 11.73,8.425 -0.38,-2.848 c -0.59,0 -1.167,0.003 -1.744,-0.002 C 44.786,13.339 44.359,13.041 44.218,12.61 44.163,12.442 44.143,12.261 44.119,12.084 43.826,9.897 43.536,7.71 43.245,5.522 43.171,4.971 43.1,4.419 43.026,3.859 h -2.899 c 0.054,0.42 0.105,0.828 0.16,1.234 0.188,1.418 0.376,2.835 0.567,4.252 0.165,1.226 0.312,2.455 0.507,3.677 0.26,1.638 1.912,3.093 3.588,3.164 0.8,0.035 1.602,0.006 2.429,0.006"
       transform="matrix(1,0,0,-1,0,35.974)"
       id="path2" />
    <path
       fill="#ffffff"
       fill-rule="nonzero"
       d="M 62.9,3.859 V 5.066 H 62.894 L 62.414,3.859 H 62.26 L 61.78,5.066 H 61.773 V 3.86 h -0.242 v 1.446 h 0.373 l 0.438,-1.099 0.43,1.099 h 0.37 V 3.859 H 62.901 Z M 60.773,5.112 V 3.859 h -0.242 v 1.253 h -0.46 v 0.193 h 1.16 V 5.112 H 60.773 M 16.682,20.339 h 0.72 l -0.17,1.073 z m 0.832,-0.694 h -1.196 l -0.38,-0.734 h -0.847 l 1.868,3.443 h 0.817 l 0.636,-3.443 h -0.785 l -0.113,0.734 m 4.279,2.015 h -0.426 l -0.143,-0.794 h 0.425 c 0.257,0 0.463,0.166 0.463,0.48 0,0.208 -0.13,0.314 -0.319,0.314 z m -1.032,0.694 h 1.12 c 0.585,0 0.995,-0.345 0.995,-0.937 0,-0.744 -0.534,-1.245 -1.293,-1.245 H 21.1 l -0.226,-1.26 h -0.728 l 0.615,3.442 m 4.591,-2.015 h 0.719 l -0.17,1.073 -0.55,-1.073 z m 0.831,-0.694 h -1.195 l -0.38,-0.734 h -0.847 l 1.868,3.443 h 0.816 l 0.637,-3.443 h -0.786 l -0.113,0.734 m 4.729,-0.612 c -0.246,-0.111 -0.518,-0.178 -0.79,-0.178 -0.924,0 -1.505,0.684 -1.505,1.54 0,1.093 0.935,2.015 2.044,2.015 0.277,0 0.528,-0.066 0.733,-0.177 l -0.102,-0.826 c -0.154,0.167 -0.4,0.284 -0.709,0.284 -0.636,0 -1.2,-0.568 -1.2,-1.225 0,-0.502 0.318,-0.892 0.82,-0.892 0.309,0 0.606,0.117 0.806,0.279 l -0.097,-0.82 m 4.454,1.265 H 33.847 L 33.6,18.911 h -0.728 l 0.615,3.443 h 0.729 L 33.97,20.992 h 1.519 l 0.246,1.362 h 0.729 L 35.849,18.911 H 35.12 l 0.246,1.387 m 2.673,-1.387 0.616,3.443 H 40.59 L 40.467,21.66 H 39.26 l -0.122,-0.668 h 1.108 l -0.123,-0.694 h -1.109 l -0.123,-0.693 h 1.206 l -0.123,-0.694 h -1.935"
       transform="matrix(1,0,0,-1,0,35.974)"
       id="path3" />
  </g>
</svg>
